<?xml version="1.0" encoding="utf-8"?>
<svg xmlns="http://www.w3.org/2000/svg" viewBox="0 0 100 100" width="400" height="400">
  <path fill="#ef7e97" d="M69.5,81.5h-39c-6.6,0-12-5.4-12-12v-39c0-6.6,5.4-12,12-12h39c6.6,0,12,5.4,12,12v39 C81.5,76.1,76.1,81.5,69.5,81.5z" />
  <path fill="#1f212b" d="M69.5,82.5h-39c-7.168,0-13-5.832-13-13v-39c0-7.168,5.832-13,13-13h39c7.168,0,13,5.832,13,13v39 C82.5,76.668,76.668,82.5,69.5,82.5z M30.5,19.5c-6.065,0-11,4.935-11,11v39c0,6.065,4.935,11,11,11h39c6.065,0,11-4.935,11-11 v-39c0-6.065-4.935-11-11-11H30.5z" />
  <path fill="#1f212b" d="M66.663,77.5H33.337c-5.976,0-10.837-4.861-10.837-10.837V33.336 c0-5.976,4.861-10.837,10.837-10.837H67c0.276,0,0.5,0.224,0.5,0.5s-0.224,0.5-0.5,0.5H33.337c-5.424,0-9.837,4.413-9.837,9.837 v33.326c0,5.424,4.413,9.837,9.837,9.837h33.326c5.424,0,9.837-4.413,9.837-9.837V48c0-0.276,0.224-0.5,0.5-0.5s0.5,0.224,0.5,0.5 v18.663C77.5,72.638,72.639,77.5,66.663,77.5z" />
  <path fill="#1f212b" d="M77,46.5c-0.276,0-0.5-0.224-0.5-0.5v-4c0-0.276,0.224-0.5,0.5-0.5s0.5,0.224,0.5,0.5v4 C77.5,46.276,77.276,46.5,77,46.5z M77,40.5c-0.276,0-0.5-0.224-0.5-0.5v-2c0-0.276,0.224-0.5,0.5-0.5s0.5,0.224,0.5,0.5v2 C77.5,40.276,77.276,40.5,77,40.5z" />
  <path fill="#fff" d="M50.5,71C36.675,71,33,59.696,33,53.609V34.5c0-1.913,1.575-3.5,3.5-3.5s3.5,1.587,3.5,3.5v19.109 C40,55.348,40.7,64,50.5,64S61,55.348,61,53.609C61,52.217,60.3,45,50.5,45c-1.925,0-3.5-1.587-3.5-3.5s1.575-3.5,3.5-3.5 C64.325,38,68,48.217,68,53.609C68,59.696,64.325,71,50.5,71z" />
  <path fill="#1f212b" d="M50.5,71.5c-14.238,0-18-11.703-18-17.891V34.5c0-2.206,1.794-4,4-4s4,1.794,4,4v19.109 c0,1.012,0.28,9.891,10,9.891s10-8.879,10-9.891c0-0.83-0.28-8.109-10-8.109c-2.206,0-4-1.794-4-4s1.794-4,4-4 c14.238,0,18,10.537,18,16.109C68.5,59.797,64.738,71.5,50.5,71.5z M36.5,31.5c-1.654,0-3,1.346-3,3v19.109 c0,5.842,3.553,16.891,17,16.891s17-11.049,17-16.891c0-5.226-3.553-15.109-17-15.109c-1.654,0-3,1.346-3,3s1.346,3,3,3 c8.684,0,11,5.726,11,9.109c0,1.115-0.309,10.891-11,10.891s-11-9.776-11-10.891V34.5C39.5,32.846,38.154,31.5,36.5,31.5z" />
</svg>